# xmcd CD database file
#
# Track frame offsets:
#	150
#	37084
#	69734
#	91634
#	118140
#	146008
#	173112
#	188457
#	212162
#	235201
#	264081
#	273663
#	297693
#	307294
#	333845
#
# Disc length: 4627 seconds
#
# Revision: 0
# Processed by: cddbd v1.5.2PL0 Copyright (c) Steve Scherf et al.
# Submitted via: jetAudio 7
#
DISCID=e812110f
DTITLE=Oliver Shanti - Buddah and Bonsai
DYEAR=1900
DGENRE=Classical
TTITLE0=Queen of Blossoms
TTITLE1=Fairy the Moonlight
TTITLE2=Spring Tea Ceremony
TTITLE3=Bi-luo-Chun Tea Ceremony
TTITLE4=The Unworldly Beauty
TTITLE5=Tie-luo-han
TTITLE6=The Yin And Yang In Harmony
TTITLE7=Dancing Shadows
TTITLE8=Tea Song Of The Xiang River
TTITLE9=Starry Sky
TTITLE10=Dancing Song Of The Yao Tribe
TTITLE11=Autumn Colors On The Que And Hua Mountains
TTITLE12=Remembrance In Separanon
TTITLE13=A Pool Of Cool Freshne
TTITLE14=Laurel Bloosom
EXTD=
EXTT0=
EXTT1=
EXTT2=
EXTT3=
EXTT4=
EXTT5=
EXTT6=
EXTT7=
EXTT8=
EXTT9=
EXTT10=
EXTT11=
EXTT12=
EXTT13=
EXTT14=
PLAYORDER=
